<svg width="24" height="24" viewBox="0 0 24 24" fill="none" xmlns="http://www.w3.org/2000/svg">
<g clip-path="url(#clip0_1478:50840)">
<path fill-rule="evenodd" clip-rule="evenodd" d="M18.2431 18.852C19.7627 17.4779 20.7849 15.5638 21.0071 13.4124C21.0372 13.1211 21.0526 12.8254 21.0526 12.5261C21.0526 11.9201 20.9894 11.329 20.8693 10.7588H12.578V14.2727H17.2261C16.8762 15.2137 16.2518 16.0212 15.4502 16.5978L18.2431 18.852Z" fill="#4285F4"/>
<path fill-rule="evenodd" clip-rule="evenodd" d="M7.79306 14.1797C8.47629 16.1355 10.3375 17.5385 12.5263 17.5385C13.6162 17.5385 14.6248 17.1906 15.4472 16.5999L18.2424 18.8526C16.7302 20.2197 14.7255 21.0523 12.5263 21.0523C9.2133 21.0523 6.34162 19.1628 4.93018 16.4026L7.79306 14.1797Z" fill="#34A853"/>
<mask id="mask0_1478:50840" style="mask-type:alpha" maskUnits="userSpaceOnUse" x="4" y="14" width="15" height="8">
<path fill-rule="evenodd" clip-rule="evenodd" d="M7.79306 14.1797C8.47629 16.1355 10.3375 17.5385 12.5263 17.5385C13.6162 17.5385 14.6248 17.1906 15.4472 16.5999L18.2424 18.8526C16.7302 20.2197 14.7255 21.0523 12.5263 21.0523C9.2133 21.0523 6.34162 19.1628 4.93018 16.4026L7.79306 14.1797Z" fill="white"/>
</mask>
<g mask="url(#mask0_1478:50840)">
</g>
<path fill-rule="evenodd" clip-rule="evenodd" d="M4.93605 16.4144C4.33768 15.2486 4 13.9269 4 12.5264C4 11.1021 4.34925 9.75932 4.96678 8.5791L7.82738 10.7776C7.62467 11.3221 7.51388 11.9113 7.51388 12.5264C7.51388 13.1286 7.62005 13.7059 7.8147 14.2407L4.93605 16.4144Z" fill="#FBBC05"/>
<mask id="mask1_1478:50840" style="mask-type:alpha" maskUnits="userSpaceOnUse" x="4" y="8" width="4" height="9">
<path fill-rule="evenodd" clip-rule="evenodd" d="M4.93605 16.4144C4.33768 15.2486 4 13.9269 4 12.5264C4 11.1021 4.34925 9.75932 4.96678 8.5791L7.82738 10.7776C7.62467 11.3221 7.51388 11.9113 7.51388 12.5264C7.51388 13.1286 7.62005 13.7059 7.8147 14.2407L4.93605 16.4144Z" fill="white"/>
</mask>
<g mask="url(#mask1_1478:50840)">
</g>
<path fill-rule="evenodd" clip-rule="evenodd" d="M4.9668 8.579C6.39088 5.85731 9.2417 4 12.5263 4C14.888 4 17.0254 4.96019 18.5695 6.51149L16.0938 9.00532C15.185 8.08454 13.9223 7.51388 12.5263 7.51388C10.3731 7.51388 8.53702 8.87155 7.82739 10.7775L4.9668 8.579Z" fill="#EA4335"/>
<mask id="mask2_1478:50840" style="mask-type:alpha" maskUnits="userSpaceOnUse" x="4" y="4" width="15" height="7">
<path fill-rule="evenodd" clip-rule="evenodd" d="M4.9668 8.579C6.39088 5.85731 9.2417 4 12.5263 4C14.888 4 17.0254 4.96019 18.5695 6.51149L16.0938 9.00532C15.185 8.08454 13.9223 7.51388 12.5263 7.51388C10.3731 7.51388 8.53702 8.87155 7.82739 10.7775L4.9668 8.579Z" fill="white"/>
</mask>
<g mask="url(#mask2_1478:50840)">
</g>
</g>
<defs>
<clipPath id="clip0_1478:50840">
<rect width="18" height="18" fill="white" transform="translate(3 3)"/>
</clipPath>
</defs>
</svg>
